<?xml version="1.0" encoding="UTF-8" standalone="no"?>
<svg
   xmlns:dc="http://purl.org/dc/elements/1.1/"
   xmlns:cc="http://creativecommons.org/ns#"
   xmlns:rdf="http://www.w3.org/1999/02/22-rdf-syntax-ns#"
   xmlns:svg="http://www.w3.org/2000/svg"
   xmlns="http://www.w3.org/2000/svg"
   xmlns:sodipodi="http://sodipodi.sourceforge.net/DTD/sodipodi-0.dtd"
   xmlns:inkscape="http://www.inkscape.org/namespaces/inkscape"
   width="277.23654"
   height="75.822853"
   viewBox="0 0 73.352167 20.061464"
   version="1.1"
   id="svg8"
   inkscape:version="1.0.1 (c497b03c, 2020-09-10)"
   sodipodi:docname="eq_logo.svg">
  <defs
     id="defs2" />
  <sodipodi:namedview
     id="base"
     pagecolor="#ffffff"
     bordercolor="#666666"
     borderopacity="1.0"
     inkscape:pageopacity="0.0"
     inkscape:pageshadow="2"
     inkscape:zoom="1.67732"
     inkscape:cx="108.10547"
     inkscape:cy="162.59752"
     inkscape:document-units="mm"
     inkscape:current-layer="layer1"
     inkscape:document-rotation="0"
     showgrid="false"
     showguides="false"
     inkscape:guide-bbox="true"
     fit-margin-left="5"
     fit-margin-top="5"
     fit-margin-right="5"
     fit-margin-bottom="5"
     units="px"
     inkscape:window-width="1536"
     inkscape:window-height="907"
     inkscape:window-x="0"
     inkscape:window-y="25"
     inkscape:window-maximized="0">
    <sodipodi:guide
       position="19.587563,20.950143"
       orientation="1,0"
       id="guide841" />
    <sodipodi:guide
       position="43.31367,16.579543"
       orientation="1,0"
       id="guide843" />
    <sodipodi:guide
       position="39.181226,14.887063"
       orientation="0,-1"
       id="guide855" />
    <sodipodi:guide
       position="43.313668,5.0154332"
       orientation="0,-1"
       id="guide857" />
  </sodipodi:namedview>
  <metadata
     id="metadata5">
    <rdf:RDF>
      <cc:Work
         rdf:about="">
        <dc:format>image/svg+xml</dc:format>
        <dc:type
           rdf:resource="http://purl.org/dc/dcmitype/StillImage" />
        <dc:title></dc:title>
      </cc:Work>
    </rdf:RDF>
  </metadata>
  <g
     inkscape:label="Capa 1"
     inkscape:groupmode="layer"
     id="layer1"
     transform="translate(-31.923064,-85.95926)">
    <path
       d="m 50.136949,94.696143 q 0,2.238565 -1.150089,4.02531 -1.129551,1.786747 -3.060057,2.669847 0.184835,0.30806 0.575044,0.53397 0.410746,0.20538 0.842029,0.20538 0.431284,0 0.84203,-0.14377 0.410746,-0.12322 0.657193,-0.30806 0.53397,-0.43128 0.75988,-0.84202 l 1.663522,1.99211 q -1.766208,1.8689 -4.41552,1.8689 -1.232238,0 -2.423401,-0.67773 -1.191164,-0.67773 -1.82782,-1.90997 -3.183281,0 -5.360235,-2.115344 -2.176954,-2.135879 -2.176954,-5.298623 0,-3.162745 2.176954,-5.278087 2.176954,-2.135879 5.360235,-2.135879 3.183282,0 5.360235,2.135879 2.176954,2.115342 2.176954,5.278087 z m -3.265431,0.02054 q 0,-1.930506 -1.232238,-3.285968 -1.232238,-1.355462 -3.03952,-1.355462 -1.786745,0 -3.018983,1.355462 -1.232238,1.355462 -1.232238,3.285968 0,1.909969 1.232238,3.265431 1.232238,1.334924 3.018983,1.334924 1.807282,0 3.03952,-1.334924 1.232238,-1.355462 1.232238,-3.265431 z"
       style="font-weight:bold;font-size:20.5373px;line-height:1.25;font-family:Montserrat;-inkscape-font-specification:'Montserrat Bold';fill:#c83737;fill-opacity:1;stroke-width:0.513433"
       id="path905" />
    <path
       d="m 62.095198,96.164614 q 0,0.116417 -0.02117,0.306916 h -4.550819 q 0.09525,0.740831 0.645581,1.195913 0.560915,0.444499 1.386412,0.444499 1.005414,0 1.619245,-0.677332 l 0.560915,0.656165 q -0.380999,0.444499 -0.952497,0.677331 -0.560915,0.232833 -1.259413,0.232833 -0.888997,0 -1.576911,-0.359832 -0.687915,-0.370416 -1.068913,-1.02658 -0.370416,-0.656165 -0.370416,-1.481662 0,-0.814915 0.359832,-1.471079 0.370416,-0.656165 1.005414,-1.015997 0.645581,-0.370415 1.449912,-0.370415 0.80433,0 1.428745,0.370415 0.634998,0.359832 0.984247,1.015997 0.359832,0.656164 0.359832,1.502828 z m -2.772824,-2.031993 q -0.730248,0 -1.227663,0.444499 -0.486832,0.444498 -0.571498,1.164162 h 3.598322 q -0.08467,-0.709081 -0.582082,-1.153579 -0.486832,-0.455082 -1.217079,-0.455082 z"
       style="font-style:normal;font-variant:normal;font-weight:500;font-stretch:normal;font-size:10.5833px;line-height:1.25;font-family:Montserrat;-inkscape-font-specification:'Montserrat Medium';stroke-width:0.264583"
       id="path908" />
    <path
       d="m 65.372879,93.275374 q 1.164163,0 1.777995,0.571498 0.624414,0.571498 0.624414,1.703911 v 3.386656 h -0.96308 v -0.740831 q -0.253999,0.391582 -0.730248,0.603248 -0.465665,0.201083 -1.111246,0.201083 -0.941914,0 -1.513412,-0.455082 -0.560915,-0.455082 -0.560915,-1.195913 0,-0.740831 0.539749,-1.18533 0.539748,-0.455081 1.714494,-0.455081 h 1.608662 V 95.50845 q 0,-0.656165 -0.380999,-1.005414 -0.380999,-0.349248 -1.12183,-0.349248 -0.497415,0 -0.973663,0.169332 -0.476249,0.15875 -0.804331,0.433916 l -0.423332,-0.761998 q 0.433915,-0.349249 1.037163,-0.529165 0.603248,-0.190499 1.280579,-0.190499 z m -0.232832,4.942401 q 0.582081,0 1.005413,-0.254 0.423332,-0.264582 0.613832,-0.740831 V 96.43978 h -1.566329 q -1.291162,0 -1.291162,0.867831 0,0.423332 0.328082,0.666748 0.328082,0.243416 0.910164,0.243416 z"
       style="font-style:normal;font-variant:normal;font-weight:500;font-stretch:normal;font-size:10.5833px;line-height:1.25;font-family:Montserrat;-inkscape-font-specification:'Montserrat Medium';stroke-width:0.264583"
       id="path910" />
    <path
       d="m 71.26414,99.000939 q -0.687915,0 -1.322913,-0.179916 -0.634998,-0.1905 -0.99483,-0.476249 l 0.423332,-0.804331 q 0.370416,0.264583 0.899581,0.423332 0.529165,0.15875 1.068913,0.15875 1.333496,0 1.333496,-0.761998 0,-0.253999 -0.179916,-0.402165 -0.179916,-0.148166 -0.455082,-0.211666 -0.264583,-0.07408 -0.761998,-0.15875 -0.677331,-0.105833 -1.111246,-0.243415 -0.423332,-0.137583 -0.730248,-0.465666 -0.306916,-0.328082 -0.306916,-0.920747 0,-0.761997 0.634998,-1.217079 0.634998,-0.465665 1.703912,-0.465665 0.560914,0 1.121829,0.137583 0.560915,0.137582 0.920747,0.370415 l -0.433915,0.804331 q -0.687914,-0.444499 -1.619245,-0.444499 -0.645581,0 -0.984247,0.211666 -0.338665,0.211666 -0.338665,0.560915 0,0.275166 0.190499,0.433915 0.1905,0.15875 0.465665,0.232833 0.285749,0.07408 0.793748,0.169333 0.677331,0.116416 1.09008,0.253999 0.423332,0.127 0.719664,0.444499 0.296332,0.317499 0.296332,0.888997 0,0.761997 -0.656164,1.217079 -0.645581,0.444499 -1.767411,0.444499 z"
       style="font-style:normal;font-variant:normal;font-weight:500;font-stretch:normal;font-size:10.5833px;line-height:1.25;font-family:Montserrat;-inkscape-font-specification:'Montserrat Medium';stroke-width:0.264583"
       id="path912" />
    <path
       d="m 79.828013,93.32829 -2.719908,6.170064 q -0.359832,0.857246 -0.846664,1.206496 -0.476248,0.34925 -1.15358,0.34925 -0.412748,0 -0.80433,-0.13758 -0.380999,-0.127 -0.634998,-0.381 l 0.433915,-0.762 q 0.433915,0.41275 1.005413,0.41275 0.370416,0 0.613832,-0.201084 0.253999,-0.1905 0.455082,-0.666748 l 0.179916,-0.391582 -2.476492,-5.598566 h 1.05833 l 1.95791,4.487319 1.936744,-4.487319 z"
       style="font-style:normal;font-variant:normal;font-weight:500;font-stretch:normal;font-size:10.5833px;line-height:1.25;font-family:Montserrat;-inkscape-font-specification:'Montserrat Medium';stroke-width:0.264583"
       id="path914" />
    <path
       d="m 88.554935,99.61477 q -0.359832,0.42333 -0.836081,0.64558 -0.476248,0.22225 -1.02658,0.22225 -0.698498,0 -1.312329,-0.33866 -0.603248,-0.328087 -1.386412,-1.132418 -1.047747,-0.05292 -1.894411,-0.560915 -0.836081,-0.507998 -1.312329,-1.344079 -0.465665,-0.846664 -0.465665,-1.873244 0,-1.068913 0.507998,-1.936744 0.518582,-0.86783 1.418162,-1.354662 0.899581,-0.497415 2.021411,-0.497415 1.111246,0 2.010827,0.497415 0.89958,0.486832 1.407578,1.354662 0.507999,0.857248 0.507999,1.936744 0,0.910164 -0.370416,1.672161 -0.359832,0.761998 -1.02658,1.28058 -0.656164,0.518581 -1.513412,0.719664 0.370416,0.391582 0.709081,0.560915 0.349249,0.179916 0.709081,0.179916 0.783165,0 1.354663,-0.634998 z m -7.175477,-4.381486 q 0,0.804331 0.370415,1.460495 0.380999,0.645582 1.037164,1.015997 0.666748,0.370416 1.481662,0.370416 0.80433,0 1.460495,-0.370416 0.656164,-0.370415 1.02658,-1.015997 0.380999,-0.656164 0.380999,-1.460495 0,-0.804331 -0.380999,-1.449912 -0.370416,-0.656165 -1.02658,-1.02658 -0.656165,-0.370416 -1.460495,-0.370416 -0.814914,0 -1.481662,0.370416 -0.656165,0.370415 -1.037164,1.02658 -0.370415,0.645581 -0.370415,1.449912 z"
       style="font-style:normal;font-variant:normal;font-weight:500;font-stretch:normal;font-size:10.5833px;line-height:1.25;font-family:Montserrat;-inkscape-font-specification:'Montserrat Medium';fill:#c83737;stroke-width:0.264583"
       id="path916" />
    <path
       d="m 94.892681,93.32829 v 5.609149 H 93.9296 v -0.846664 q -0.306915,0.433915 -0.814914,0.677331 -0.497415,0.232833 -1.09008,0.232833 -1.121829,0 -1.767411,-0.613832 -0.645581,-0.624414 -0.645581,-1.83091 V 93.32829 h 1.015997 v 3.11149 q 0,0.814914 0.391582,1.238246 0.391582,0.412749 1.12183,0.412749 0.804331,0 1.269996,-0.486832 0.465665,-0.486832 0.465665,-1.375829 V 93.32829 Z"
       style="font-style:normal;font-variant:normal;font-weight:500;font-stretch:normal;font-size:10.5833px;line-height:1.25;font-family:Montserrat;-inkscape-font-specification:'Montserrat Medium';fill:#c83737;stroke-width:0.264583"
       id="path918" />
    <path
       d="m 96.837195,93.32829 h 1.015997 v 5.609149 h -1.015997 z m 0.507999,-1.079496 q -0.296333,0 -0.497415,-0.1905 -0.1905,-0.190499 -0.1905,-0.465665 0,-0.275166 0.1905,-0.465665 0.201082,-0.201083 0.497415,-0.201083 0.296332,0 0.486831,0.1905 0.201083,0.179916 0.201083,0.455081 0,0.28575 -0.201083,0.486832 -0.190499,0.1905 -0.486831,0.1905 z"
       style="font-style:normal;font-variant:normal;font-weight:500;font-stretch:normal;font-size:10.5833px;line-height:1.25;font-family:Montserrat;-inkscape-font-specification:'Montserrat Medium';fill:#c83737;stroke-width:0.264583"
       id="path920" />
    <path
       d="m 103.95232,98.101358 v 0.836081 h -4.69899 v -0.656165 l 3.31257,-4.116903 H 99.31683 V 93.32829 h 4.55082 v 0.666748 l -3.31257,4.10632 z"
       style="font-style:normal;font-variant:normal;font-weight:500;font-stretch:normal;font-size:10.5833px;line-height:1.25;font-family:Montserrat;-inkscape-font-specification:'Montserrat Medium';fill:#c83737;stroke-width:0.264583"
       id="path922" />
    <path
       d="m 38.495297,103.1534 q -0.96308,0.91016 -2.264826,0.91016 -1.291163,0 -2.137827,-0.79374 -0.846664,-0.80433 -0.846664,-2.14841 0,-1.344083 0.857248,-2.13783 0.86783,-0.793748 2.042577,-0.793748 1.174746,0 1.98966,0.709081 0.825497,0.709081 0.825497,1.947327 v 0.84666 h -4.148653 q 0.07408,0.46567 0.486832,0.762 0.412748,0.29633 0.93133,0.29633 0.836081,0 1.375829,-0.56091 z m -1.142996,-2.59291 q -0.05292,-0.508 -0.380999,-0.783163 -0.328082,-0.275166 -0.804331,-0.275166 -0.465665,0 -0.857247,0.285749 -0.391582,0.28575 -0.455082,0.77258 z"
       style="font-weight:bold;font-size:10.5833px;line-height:1.25;font-family:Montserrat;-inkscape-font-specification:'Montserrat Bold';fill:#000000;stroke-width:0.264583"
       id="path925" />
  </g>
</svg>
